<mxfile host="app.diagrams.net" modified="2020-03-27T08:26:34.103Z" agent="Mozilla/5.0 (Macintosh; Intel Mac OS X 10_15_0) AppleWebKit/537.36 (KHTML, like Gecko) Chrome/80.0.3987.149 Safari/537.36" etag="F8clrlChcJEXdocBM0VT" version="12.9.3" type="github">
  <diagram id="Fns80X8MUfb5Lub71skI" name="Page-1">
    <mxGraphModel dx="895" dy="591" grid="1" gridSize="10" guides="1" tooltips="1" connect="1" arrows="1" fold="1" page="1" pageScale="1" pageWidth="827" pageHeight="1169" math="0" shadow="0">
      <root>
        <mxCell id="0" />
        <mxCell id="1" parent="0" />
        <mxCell id="C6wJlV8o9P9KcJm7cXyE-1" value="React App" style="rounded=1;whiteSpace=wrap;html=1;" vertex="1" parent="1">
          <mxGeometry x="164" y="840" width="500" height="60" as="geometry" />
        </mxCell>
        <mxCell id="C6wJlV8o9P9KcJm7cXyE-4" value="Babylon.js" style="rounded=1;whiteSpace=wrap;html=1;" vertex="1" parent="1">
          <mxGeometry x="164" y="990" width="500" height="60" as="geometry" />
        </mxCell>
        <mxCell id="C6wJlV8o9P9KcJm7cXyE-5" value="WebGL" style="rounded=1;whiteSpace=wrap;html=1;" vertex="1" parent="1">
          <mxGeometry x="164" y="1070" width="500" height="60" as="geometry" />
        </mxCell>
        <mxCell id="C6wJlV8o9P9KcJm7cXyE-6" value="react-babylon" style="rounded=1;whiteSpace=wrap;html=1;" vertex="1" parent="1">
          <mxGeometry x="164" y="920" width="236" height="60" as="geometry" />
        </mxCell>
        <mxCell id="C6wJlV8o9P9KcJm7cXyE-7" value="react-baby-spring" style="rounded=1;whiteSpace=wrap;html=1;" vertex="1" parent="1">
          <mxGeometry x="428" y="920" width="236" height="60" as="geometry" />
        </mxCell>
        <mxCell id="C6wJlV8o9P9KcJm7cXyE-8" value="Static &lt;br&gt;Data Pool" style="shape=cylinder;whiteSpace=wrap;html=1;boundedLbl=1;backgroundOutline=1;" vertex="1" parent="1">
          <mxGeometry x="220" y="230" width="100" height="130" as="geometry" />
        </mxCell>
        <mxCell id="C6wJlV8o9P9KcJm7cXyE-9" value="" style="endArrow=none;dashed=1;html=1;" edge="1" parent="1">
          <mxGeometry width="50" height="50" relative="1" as="geometry">
            <mxPoint x="90" y="720" as="sourcePoint" />
            <mxPoint x="680" y="720" as="targetPoint" />
          </mxGeometry>
        </mxCell>
        <mxCell id="C6wJlV8o9P9KcJm7cXyE-10" value="&lt;span style=&quot;white-space: normal&quot;&gt;Dynamic &lt;br&gt;Data Pool&lt;/span&gt;" style="shape=cylinder;whiteSpace=wrap;html=1;boundedLbl=1;backgroundOutline=1;" vertex="1" parent="1">
          <mxGeometry x="496" y="230" width="100" height="130" as="geometry" />
        </mxCell>
        <mxCell id="C6wJlV8o9P9KcJm7cXyE-11" value="static component tree" style="rounded=1;whiteSpace=wrap;html=1;" vertex="1" parent="1">
          <mxGeometry x="164" y="760" width="226" height="60" as="geometry" />
        </mxCell>
        <mxCell id="C6wJlV8o9P9KcJm7cXyE-12" value="movement component tree" style="rounded=1;whiteSpace=wrap;html=1;" vertex="1" parent="1">
          <mxGeometry x="438" y="760" width="226" height="60" as="geometry" />
        </mxCell>
        <mxCell id="C6wJlV8o9P9KcJm7cXyE-13" value="Timeline Frames" style="rounded=1;whiteSpace=wrap;html=1;" vertex="1" parent="1">
          <mxGeometry x="560" y="400" width="136" height="110" as="geometry" />
        </mxCell>
        <mxCell id="C6wJlV8o9P9KcJm7cXyE-14" value="playback control" style="rounded=1;whiteSpace=wrap;html=1;" vertex="1" parent="1">
          <mxGeometry x="560" y="540" width="136" height="70" as="geometry" />
        </mxCell>
        <mxCell id="C6wJlV8o9P9KcJm7cXyE-16" value="Tree Checker" style="rounded=1;whiteSpace=wrap;html=1;" vertex="1" parent="1">
          <mxGeometry x="438" y="400" width="96" height="110" as="geometry" />
        </mxCell>
      </root>
    </mxGraphModel>
  </diagram>
</mxfile>
